<svg id="Component_59_3" data-name="Component 59 – 3" xmlns="http://www.w3.org/2000/svg" width="48" height="48" viewBox="0 0 48 48">
    <circle id="Ellipse_41" cx="24" cy="24" r="24" fill="#fff"/>
    <path id="arrow-down-c" d="M11.828,4.886,7.134.4a1.361,1.361,0,0,0-1-.4,1.368,1.368,0,0,0-1,.4L.419,4.886a1.322,1.322,0,0,0,0,1.932,1.478,1.478,0,0,0,2.021,0L4.693,4.663V20.721a1.513,1.513,0,0,0,1.439,1.49,1.5,1.5,0,0,0,1.422-1.49V4.663L9.807,6.818a1.478,1.478,0,0,0,2.021,0A1.322,1.322,0,0,0,11.828,4.886Z" transform="translate(13 30.247) rotate(-90)"/>
</svg>
