<svg id="Component_58_3" data-name="Component 58 – 3" xmlns="http://www.w3.org/2000/svg" width="48" height="48"
     viewBox="0 0 48 48">
    <circle id="Ellipse_41" cx="24" cy="24" r="24" fill="#fff"/>
    <path id="arrow-down-c"
          d="M20.2,12.766,15.5,17.25a1.447,1.447,0,0,1-2,0L8.788,12.766a1.322,1.322,0,0,1,0-1.932,1.478,1.478,0,0,1,2.021,0l2.253,2.155V-3.068A1.513,1.513,0,0,1,14.5-4.558a1.5,1.5,0,0,1,1.422,1.49V12.989l2.253-2.155a1.478,1.478,0,0,1,2.021,0A1.322,1.322,0,0,1,20.2,12.766Z"
          transform="translate(17.558 38.616) rotate(-90)"/>
</svg>

